<?xml version="1.0" standalone="no"?><svg xmlns="http://www.w3.org/2000/svg" viewBox="0 0 1440 320"><path fill="#871e6b" fill-opacity="1" d="M0,160L17.1,181.3C34.3,203,69,245,103,245.3C137.1,245,171,203,206,181.3C240,160,274,160,309,154.7C342.9,149,377,139,411,154.7C445.7,171,480,213,514,208C548.6,203,583,149,617,149.3C651.4,149,686,203,720,218.7C754.3,235,789,213,823,213.3C857.1,213,891,235,926,250.7C960,267,994,277,1029,261.3C1062.9,245,1097,203,1131,181.3C1165.7,160,1200,160,1234,149.3C1268.6,139,1303,117,1337,128C1371.4,139,1406,181,1423,202.7L1440,224L1440,320L1422.9,320C1405.7,320,1371,320,1337,320C1302.9,320,1269,320,1234,320C1200,320,1166,320,1131,320C1097.1,320,1063,320,1029,320C994.3,320,960,320,926,320C891.4,320,857,320,823,320C788.6,320,754,320,720,320C685.7,320,651,320,617,320C582.9,320,549,320,514,320C480,320,446,320,411,320C377.1,320,343,320,309,320C274.3,320,240,320,206,320C171.4,320,137,320,103,320C68.6,320,34,320,17,320L0,320Z"></path></svg>